<svg xmlns="http://www.w3.org/2000/svg" width="19.5" height="19.5"><defs><style>.a{fill:#3d3d3d}</style></defs><path class="a" d="M18.787 3.8h-4.519V2.14A2.131 2.131 0 0012.128 0H7.372a2.131 2.131 0 00-2.14 2.14V3.8H.713a.714.714 0 100 1.427H1.9v10.7A3.593 3.593 0 005.47 19.5h8.56a3.593 3.593 0 003.57-3.567v-10.7h1.189a.714.714 0 000-1.427zM6.659 2.14a.731.731 0 01.713-.713h4.756a.731.731 0 01.713.713V3.8H6.659zm9.512 13.793a2.131 2.131 0 01-2.14 2.14H5.47a2.131 2.131 0 01-2.14-2.14v-10.7h12.841z"/><path class="a" d="M5.945 6.706a.731.731 0 00-.713.713v7.61a.714.714 0 001.427 0v-7.61a.731.731 0 00-.714-.713zm3.805 0a.731.731 0 00-.713.713v7.61a.714.714 0 001.427 0v-7.61a.731.731 0 00-.714-.713zm3.091.713v7.61a.714.714 0 101.427 0v-7.61a.714.714 0 10-1.427 0z"/></svg>