<svg xmlns="http://www.w3.org/2000/svg" width="94.007" height="94.009"><path d="M1.177 59.371h91.655a1.175 1.175 0 100-2.35H80.464v-2.04c1.858-.026 5.41-.4 7.826-2.748 3.323-3.226 3-8.741 2.986-8.975a1.175 1.175 0 00-1.06-1.093 14.68 14.68 0 00-6.1.862 8.91 8.91 0 00.488-2.9c-.043-4.827-4.441-8.557-4.629-8.713a1.172 1.172 0 00-1.522.014c-.184.16-4.516 3.966-4.472 8.793a8.735 8.735 0 00.4 2.5 15.029 15.029 0 00-5.607-.858 1.176 1.176 0 00-1.093 1.06c-.023.233-.51 5.737 2.716 9.06 2.329 2.4 5.849 2.9 7.715 2.985v2.05H47.854v-2.04c1.858-.026 5.41-.4 7.825-2.748 3.324-3.224 3-8.741 2.987-8.975a1.175 1.175 0 00-1.06-1.093 14.719 14.719 0 00-6.1.864 8.889 8.889 0 00.486-2.9c-.042-4.827-4.439-8.557-4.627-8.713a1.172 1.172 0 00-1.522.014c-.184.16-4.516 3.966-4.473 8.793a8.782 8.782 0 00.4 2.5 15.01 15.01 0 00-5.607-.857 1.175 1.175 0 00-1.093 1.06c-.024.233-.509 5.737 2.717 9.06 2.329 2.4 5.849 2.9 7.715 2.985v2.05H15.243v-2.04c1.858-.026 5.411-.4 7.826-2.748 3.324-3.226 3-8.741 2.986-8.975a1.176 1.176 0 00-1.06-1.093 14.7 14.7 0 00-6.1.862 8.879 8.879 0 00.486-2.9c-.043-4.827-4.439-8.557-4.627-8.713a1.173 1.173 0 00-1.523.014c-.184.16-4.517 3.966-4.473 8.793a8.775 8.775 0 00.4 2.5 15.029 15.029 0 00-5.607-.858 1.176 1.176 0 00-1.093 1.06c-.024.233-.51 5.737 2.716 9.06 2.329 2.4 5.849 2.9 7.715 2.985v2.05H1.177a1.177 1.177 0 000 2.355zm85.477-8.828c-1.787 1.733-4.6 2.05-6.131 2.085.076-1.523.475-4.321 2.27-6.062s4.6-2.052 6.131-2.086c-.078 1.525-.475 4.324-2.27 6.063zM79.237 33.96c1.1 1.15 2.991 3.516 3.014 6.19.023 2.659-1.83 5.067-2.908 6.242-1.1-1.15-2.992-3.516-3.014-6.189s1.828-5.068 2.908-6.243zm-9.238 10.261c1.526.08 4.331.483 6.062 2.268s2.052 4.6 2.086 6.131c-1.523-.076-4.322-.475-6.063-2.27s-2.049-4.6-2.085-6.129zm-15.957 6.322c-1.786 1.734-4.6 2.05-6.131 2.085.076-1.523.475-4.321 2.271-6.062s4.6-2.05 6.128-2.086c-.08 1.528-.482 4.334-2.268 6.063zM46.625 33.96c1.1 1.15 2.992 3.516 3.014 6.19.025 2.658-1.826 5.065-2.906 6.24-1.1-1.155-2.993-3.529-3.016-6.187s1.829-5.068 2.908-6.243zm-9.237 10.259c1.523.076 4.322.474 6.063 2.27s2.05 4.6 2.085 6.131c-1.523-.076-4.321-.475-6.062-2.27s-2.05-4.607-2.086-6.131zm-15.956 6.324c-1.786 1.734-4.6 2.05-6.131 2.085.076-1.523.475-4.321 2.27-6.062s4.6-2.052 6.131-2.086c-.076 1.525-.473 4.324-2.27 6.063zm-7.418-16.58c1.1 1.156 2.992 3.529 3.015 6.188s-1.827 5.065-2.907 6.24c-1.1-1.156-2.992-3.529-3.015-6.187s1.827-5.066 2.907-6.241zM4.777 44.221c1.526.08 4.331.482 6.063 2.268s2.049 4.6 2.085 6.128c-1.526-.08-4.331-.482-6.063-2.267s-2.049-4.6-2.085-6.129zm-3.6-18.339a1.175 1.175 0 100 2.35h91.655a1.175 1.175 0 100-2.35H80.464v-2.04c1.858-.026 5.41-.4 7.826-2.748 3.323-3.226 3-8.741 2.986-8.975a1.175 1.175 0 00-1.06-1.093 14.68 14.68 0 00-6.1.862 8.91 8.91 0 00.488-2.9C84.561 4.161 80.163.431 79.975.275a1.172 1.172 0 00-1.522.014c-.184.16-4.516 3.966-4.472 8.793a8.741 8.741 0 00.4 2.5 14.933 14.933 0 00-5.607-.857 1.176 1.176 0 00-1.093 1.06c-.023.233-.51 5.737 2.716 9.06 2.329 2.4 5.849 2.9 7.715 2.985v2.05H47.854v-2.04c1.858-.026 5.41-.4 7.825-2.748 3.324-3.224 3-8.741 2.987-8.975a1.175 1.175 0 00-1.06-1.093 14.669 14.669 0 00-6.1.864 8.884 8.884 0 00.486-2.9C51.95 4.161 47.553.431 47.365.275a1.172 1.172 0 00-1.522.014c-.184.16-4.516 3.966-4.473 8.793a8.767 8.767 0 00.4 2.5 14.983 14.983 0 00-5.607-.857 1.175 1.175 0 00-1.093 1.06c-.024.233-.509 5.737 2.717 9.06 2.329 2.4 5.849 2.9 7.715 2.985v2.05H15.243v-2.04c1.858-.026 5.411-.4 7.826-2.748 3.324-3.226 3-8.741 2.986-8.975a1.176 1.176 0 00-1.06-1.093 14.7 14.7 0 00-6.1.862 8.879 8.879 0 00.486-2.9C19.338 4.159 14.942.429 14.754.273a1.173 1.173 0 00-1.523.014c-.184.16-4.517 3.966-4.473 8.793a8.782 8.782 0 00.4 2.5 14.933 14.933 0 00-5.607-.857 1.176 1.176 0 00-1.093 1.06c-.024.233-.51 5.737 2.716 9.06 2.329 2.4 5.849 2.9 7.715 2.985v2.05H1.177zm85.476-6.478c-1.787 1.733-4.6 2.05-6.131 2.085.076-1.523.475-4.321 2.27-6.062s4.6-2.052 6.131-2.086c-.077 1.525-.474 4.324-2.27 6.063zM79.236 2.821c1.1 1.15 2.991 3.516 3.014 6.19.023 2.659-1.83 5.067-2.908 6.242-1.1-1.15-2.992-3.516-3.014-6.189s1.829-5.068 2.908-6.243zm-9.237 10.261c1.526.08 4.331.483 6.062 2.268s2.052 4.6 2.086 6.131c-1.523-.076-4.322-.475-6.063-2.27s-2.05-4.6-2.085-6.129zm-15.957 6.322c-1.786 1.734-4.6 2.05-6.131 2.085.076-1.523.475-4.321 2.271-6.062s4.6-2.05 6.128-2.086c-.08 1.528-.482 4.334-2.268 6.063zM46.625 2.821c1.1 1.15 2.992 3.516 3.014 6.19.025 2.658-1.826 5.065-2.906 6.24-1.1-1.155-2.993-3.529-3.016-6.187s1.829-5.068 2.908-6.243zM37.388 13.08c1.523.076 4.322.474 6.063 2.27s2.05 4.6 2.085 6.131c-1.523-.077-4.321-.477-6.059-2.27s-2.053-4.607-2.089-6.131zm-15.956 6.324c-1.786 1.734-4.6 2.05-6.131 2.085.076-1.523.475-4.321 2.27-6.062s4.6-2.052 6.131-2.086c-.076 1.525-.474 4.324-2.27 6.063zm-7.418-16.58c1.1 1.156 2.992 3.529 3.015 6.188s-1.827 5.065-2.907 6.24c-1.1-1.156-2.992-3.529-3.015-6.187s1.827-5.066 2.907-6.241zM4.777 13.082c1.526.08 4.331.482 6.063 2.268s2.049 4.6 2.085 6.128c-1.526-.08-4.331-.482-6.063-2.267s-2.049-4.6-2.085-6.129zm83.7 49.825a1.176 1.176 0 00-1.492 0l-5.108 4.187a1.177 1.177 0 00-.429.908v7.075h-3.644v-7.075a1.175 1.175 0 00-.429-.908l-5.1-4.187a1.176 1.176 0 00-1.492 0l-5.1 4.187a1.177 1.177 0 00-.429.908v7.075h-3.762v-7.075a1.175 1.175 0 00-.429-.908l-5.1-4.187a1.176 1.176 0 00-1.492 0l-5.1 4.187a1.177 1.177 0 00-.429.908v7.075h-3.765v-7.075a1.175 1.175 0 00-.429-.908l-5.1-4.187a1.176 1.176 0 00-1.492 0l-5.1 4.187a1.177 1.177 0 00-.429.908v7.075h-3.758v-7.075a1.175 1.175 0 00-.429-.908l-5.1-4.187a1.176 1.176 0 00-1.492 0l-5.1 4.187a1.177 1.177 0 00-.429.908v7.075h-3.762v-7.075a1.175 1.175 0 00-.429-.908l-5.1-4.187a1.176 1.176 0 00-1.492 0l-5.1 4.187a1.177 1.177 0 00-.429.908v24.834a1.174 1.174 0 001.17 1.173h10.2a1.174 1.174 0 001.18-1.173v-6.137h3.755v6.137a1.174 1.174 0 001.175 1.175h10.207a1.174 1.174 0 001.175-1.175v-6.137h3.754v6.137a1.174 1.174 0 001.175 1.175h10.207a1.174 1.174 0 001.172-1.175v-6.137h3.755v6.137a1.174 1.174 0 001.175 1.175h10.21a1.174 1.174 0 001.175-1.175v-6.137h3.755v6.137a1.174 1.174 0 001.175 1.175h10.207a1.174 1.174 0 001.175-1.175v-6.137h3.646v6.137a1.174 1.174 0 001.175 1.175h10.207a1.174 1.174 0 001.175-1.175V68.003a1.175 1.175 0 00-.429-.908zM10.209 91.659H2.352v-23.1l3.925-3.223 3.928 3.222zm2.35-7.31v-6.922h3.755v6.922zm13.961 7.31h-7.857v-23.1l3.929-3.223 3.928 3.222zm2.35-7.31v-6.922h3.754v6.922zm13.961 7.31h-7.854v-23.1l3.926-3.223 3.928 3.222v23.1zm2.35-7.31v-6.922h3.755v6.922zm13.962 7.31h-7.855v-23.1l3.928-3.223 3.928 3.222v23.1zm2.35-7.31v-6.922h3.755v6.922zm13.962 7.31h-7.856v-23.1l3.928-3.223 3.928 3.222v23.1zm2.35-7.31v-6.922h3.646v6.922zm13.852 7.31H83.8v-23.1l3.929-3.223 3.928 3.222v23.1z" fill="#61a47d"/></svg>