<svg version="1.1" id="Warstwa_1" xmlns="http://www.w3.org/2000/svg" x="0" y="0" viewBox="0 0 65.4 47.8" xml:space="preserve"><style>.st0{fill:#ffdc7c}</style><g id="Ресурс_1" transform="translate(7.5 4.5)"><g id="Layer_1"><g transform="translate(-7.5 -4.5)"><circle id="Ellipse_8-2" class="st0" cx="20.7" cy="20.6" r="8.2"/></g><g transform="translate(-7.5 -4.5)"><path id="Path_38-2" class="st0" d="M20.6 9.2c-.5 0-1-.4-1-1v-7c0-.5.4-1 1-1 .5 0 1 .4 1 1v7c0 .6-.4 1-1 1z"/></g><path id="Path_39" class="st0" d="M13.2 36.5c-.5 0-1-.4-1-1v-7c0-.5.4-1 1-1 .5 0 1 .4 1 1v7c-.1.5-.5 1-1 1z"/><g transform="translate(-7.5 -4.5)"><path id="Path_40-2" class="st0" d="M28.7 12.5c-.4-.4-.4-1 0-1.4l5-5c.4-.4 1-.4 1.4 0 .4.4.4 1 0 1.4l-5 5c-.4.4-1 .4-1.4 0z"/></g><g transform="translate(-7.5 -4.5)"><path id="Path_41-2" class="st0" d="M6.2 35c-.4-.4-.4-1 0-1.4l5-5c.4-.4 1-.4 1.4 0 .4.4.4 1 0 1.4l-5 5c-.3.4-1 .4-1.4 0z"/></g><path id="Path_42" class="st0" d="M24.5 16.1c0-.5.4-1 1-1h7c.5 0 1 .4 1 1 0 .5-.4 1-1 1h-7c-.5 0-1-.5-1-1z"/><g transform="translate(-7.5 -4.5)"><path id="Path_43-2" class="st0" d="M.3 20.6c0-.5.4-1 1-1h7c.5 0 1 .4 1 1 0 .5-.4 1-1 1h-7c-.6 0-1-.5-1-1z"/></g><path id="Path_44" class="st0" d="M21.2 24.1c.4-.4 1-.4 1.4 0l5 5c.4.4.4 1 0 1.4-.4.4-1 .4-1.4 0l-5-5c-.4-.4-.4-1 0-1.4z"/><g transform="translate(-7.5 -4.5)"><path id="Path_45-2" class="st0" d="M6.2 6.2c.4-.4 1-.4 1.4 0l5 5c.4.4.4 1 0 1.4-.4.4-1 .4-1.4 0l-5-5c-.3-.4-.3-1 0-1.4z"/></g><g transform="translate(-7.5 -4.5)"><path id="Path_46-2" d="M58.4 35c2-4.7-.2-10.2-4.9-12.2-2.8-1.2-6-1-8.6.7-2.7-6.6-10.2-9.8-16.8-7.2-5.5 2.2-8.8 7.8-8 13.7H20c-4.8 0-8.7 3.9-8.7 8.7 0 4.8 3.9 8.7 8.7 8.7h38.4c3.4.1 6.2-2.6 6.3-6s-2.6-6.2-6-6.3c-.1-.1-.2-.1-.3-.1z" fill="#fff"/></g></g></g></svg>