<svg xmlns="http://www.w3.org/2000/svg" width="19.5" height="19.5" viewBox="0 0 19.5 19.5"><defs><style>.a{fill:#3d3d3d;}</style></defs><path class="a" d="M30.287,14.8H25.768V13.14A2.131,2.131,0,0,0,23.628,11H18.872a2.131,2.131,0,0,0-2.14,2.14V14.8H12.213a.713.713,0,1,0,0,1.427H13.4v10.7A3.593,3.593,0,0,0,16.97,30.5H25.53A3.593,3.593,0,0,0,29.1,26.933v-10.7h1.189a.713.713,0,0,0,0-1.427ZM18.159,13.14a.731.731,0,0,1,.713-.713h4.756a.731.731,0,0,1,.713.713V14.8H18.159Zm9.512,13.793a2.131,2.131,0,0,1-2.14,2.14H16.97a2.131,2.131,0,0,1-2.14-2.14v-10.7H27.671Z" transform="translate(-11.5 -11)"/><path class="a" d="M23.213,25.1a.731.731,0,0,0-.713.713v7.61a.713.713,0,0,0,1.427,0v-7.61A.731.731,0,0,0,23.213,25.1Z" transform="translate(-17.268 -18.394)"/><path class="a" d="M31.213,25.1a.731.731,0,0,0-.713.713v7.61a.713.713,0,0,0,1.427,0v-7.61A.731.731,0,0,0,31.213,25.1Z" transform="translate(-21.463 -18.394)"/><path class="a" d="M38.5,25.813v7.61a.713.713,0,1,0,1.427,0v-7.61a.713.713,0,1,0-1.427,0Z" transform="translate(-25.659 -18.394)"/></svg>