<svg xmlns="http://www.w3.org/2000/svg" width="94.007" height="94.009" viewBox="0 0 94.007 94.009"><defs><style>.a{fill:#61a47d;}</style></defs><path class="a" d="M11.3,64.728h91.655a1.175,1.175,0,1,0,0-2.35H90.587v-2.04c1.858-.026,5.41-.4,7.826-2.748,3.323-3.226,3-8.741,2.986-8.975a1.175,1.175,0,0,0-1.06-1.093,14.68,14.68,0,0,0-6.1.862,8.91,8.91,0,0,0,.488-2.9c-.043-4.827-4.441-8.557-4.629-8.713a1.172,1.172,0,0,0-1.522.014c-.184.16-4.516,3.966-4.472,8.793a8.735,8.735,0,0,0,.4,2.5,15.029,15.029,0,0,0-5.607-.858,1.176,1.176,0,0,0-1.093,1.06c-.023.233-.51,5.737,2.716,9.06,2.329,2.4,5.849,2.9,7.715,2.985v2.05H57.977v-2.04c1.858-.026,5.41-.4,7.825-2.748,3.324-3.224,3-8.741,2.987-8.975a1.175,1.175,0,0,0-1.06-1.093,14.719,14.719,0,0,0-6.1.864,8.889,8.889,0,0,0,.486-2.9c-.042-4.827-4.439-8.557-4.627-8.713a1.172,1.172,0,0,0-1.522.014c-.184.16-4.516,3.966-4.473,8.793a8.782,8.782,0,0,0,.4,2.5,15.01,15.01,0,0,0-5.607-.857,1.175,1.175,0,0,0-1.093,1.06c-.024.233-.509,5.737,2.717,9.06,2.329,2.4,5.849,2.9,7.715,2.985v2.05H25.366v-2.04c1.858-.026,5.411-.4,7.826-2.748,3.324-3.226,3-8.741,2.986-8.975a1.176,1.176,0,0,0-1.06-1.093,14.7,14.7,0,0,0-6.1.862,8.879,8.879,0,0,0,.486-2.9c-.043-4.827-4.439-8.557-4.627-8.713a1.173,1.173,0,0,0-1.523.014c-.184.16-4.517,3.966-4.473,8.793a8.775,8.775,0,0,0,.4,2.5,15.029,15.029,0,0,0-5.607-.858,1.176,1.176,0,0,0-1.093,1.06c-.024.233-.51,5.737,2.716,9.06,2.329,2.4,5.849,2.9,7.715,2.985v2.05H11.3a1.177,1.177,0,0,0,0,2.355ZM96.777,55.9c-1.787,1.733-4.6,2.05-6.131,2.085.076-1.523.475-4.321,2.27-6.062s4.6-2.052,6.131-2.086C98.969,51.362,98.572,54.161,96.777,55.9ZM89.36,39.317c1.1,1.15,2.991,3.516,3.014,6.19.023,2.659-1.83,5.067-2.908,6.242-1.1-1.15-2.992-3.516-3.014-6.189S88.28,40.492,89.36,39.317ZM80.122,49.578c1.526.08,4.331.483,6.062,2.268s2.052,4.6,2.086,6.131c-1.523-.076-4.322-.475-6.063-2.27S80.158,51.107,80.122,49.578ZM64.165,55.9c-1.786,1.734-4.6,2.05-6.131,2.085.076-1.523.475-4.321,2.271-6.062s4.6-2.05,6.128-2.086C66.353,51.365,65.951,54.171,64.165,55.9ZM56.748,39.317c1.1,1.15,2.992,3.516,3.014,6.19.025,2.658-1.826,5.065-2.906,6.24-1.1-1.155-2.993-3.529-3.016-6.187S55.669,40.492,56.748,39.317ZM47.511,49.576c1.523.076,4.322.474,6.063,2.27s2.05,4.6,2.085,6.131c-1.523-.076-4.321-.475-6.062-2.27S47.547,51.1,47.511,49.576ZM31.555,55.9c-1.786,1.734-4.6,2.05-6.131,2.085.076-1.523.475-4.321,2.27-6.062s4.6-2.052,6.131-2.086C33.749,51.362,33.352,54.161,31.555,55.9ZM24.137,39.32c1.1,1.156,2.992,3.529,3.015,6.188s-1.827,5.065-2.907,6.24c-1.1-1.156-2.992-3.529-3.015-6.187S23.057,40.495,24.137,39.32ZM14.9,49.578c1.526.08,4.331.482,6.063,2.268s2.049,4.6,2.085,6.128c-1.526-.08-4.331-.482-6.063-2.267S14.936,51.107,14.9,49.578Z" transform="translate(-10.123 -5.357)"/><path class="a" d="M11.3,35.878a1.175,1.175,0,1,0,0,2.35h91.655a1.175,1.175,0,1,0,0-2.35H90.587v-2.04c1.858-.026,5.41-.4,7.826-2.748,3.323-3.226,3-8.741,2.986-8.975a1.175,1.175,0,0,0-1.06-1.093,14.68,14.68,0,0,0-6.1.862,8.91,8.91,0,0,0,.488-2.9c-.043-4.827-4.441-8.557-4.629-8.713a1.172,1.172,0,0,0-1.522.014c-.184.16-4.516,3.966-4.472,8.793a8.741,8.741,0,0,0,.4,2.5,14.933,14.933,0,0,0-5.607-.857,1.176,1.176,0,0,0-1.093,1.06c-.023.233-.51,5.737,2.716,9.06,2.329,2.4,5.849,2.9,7.715,2.985v2.05H57.977v-2.04c1.858-.026,5.41-.4,7.825-2.748,3.324-3.224,3-8.741,2.987-8.975a1.175,1.175,0,0,0-1.06-1.093,14.669,14.669,0,0,0-6.1.864,8.884,8.884,0,0,0,.486-2.9c-.042-4.827-4.439-8.557-4.627-8.713a1.172,1.172,0,0,0-1.522.014c-.184.16-4.516,3.966-4.473,8.793a8.767,8.767,0,0,0,.4,2.5,14.983,14.983,0,0,0-5.607-.857,1.175,1.175,0,0,0-1.093,1.06c-.024.233-.509,5.737,2.717,9.06,2.329,2.4,5.849,2.9,7.715,2.985v2.05H25.366v-2.04c1.858-.026,5.411-.4,7.826-2.748,3.324-3.226,3-8.741,2.986-8.975a1.176,1.176,0,0,0-1.06-1.093,14.7,14.7,0,0,0-6.1.862,8.879,8.879,0,0,0,.486-2.9c-.043-4.827-4.439-8.557-4.627-8.713a1.173,1.173,0,0,0-1.523.014c-.184.16-4.517,3.966-4.473,8.793a8.782,8.782,0,0,0,.4,2.5,14.933,14.933,0,0,0-5.607-.857,1.176,1.176,0,0,0-1.093,1.06c-.024.233-.51,5.737,2.716,9.06,2.329,2.4,5.849,2.9,7.715,2.985v2.05H11.3ZM96.776,29.4c-1.787,1.733-4.6,2.05-6.131,2.085.076-1.523.475-4.321,2.27-6.062s4.6-2.052,6.131-2.086C98.969,24.862,98.572,27.661,96.776,29.4ZM89.359,12.817c1.1,1.15,2.991,3.516,3.014,6.19.023,2.659-1.83,5.067-2.908,6.242-1.1-1.15-2.992-3.516-3.014-6.189S88.28,13.992,89.359,12.817ZM80.122,23.078c1.526.08,4.331.483,6.062,2.268s2.052,4.6,2.086,6.131c-1.523-.076-4.322-.475-6.063-2.27S80.157,24.607,80.122,23.078ZM64.165,29.4c-1.786,1.734-4.6,2.05-6.131,2.085.076-1.523.475-4.321,2.271-6.062s4.6-2.05,6.128-2.086C66.353,24.865,65.951,27.671,64.165,29.4ZM56.748,12.817c1.1,1.15,2.992,3.516,3.014,6.19.025,2.658-1.826,5.065-2.906,6.24-1.1-1.155-2.993-3.529-3.016-6.187S55.669,13.992,56.748,12.817ZM47.511,23.076c1.523.076,4.322.474,6.063,2.27s2.05,4.6,2.085,6.131C54.136,31.4,51.338,31,49.6,29.207S47.547,24.6,47.511,23.076ZM31.555,29.4c-1.786,1.734-4.6,2.05-6.131,2.085.076-1.523.475-4.321,2.27-6.062s4.6-2.052,6.131-2.086C33.749,24.862,33.351,27.661,31.555,29.4ZM24.137,12.82c1.1,1.156,2.992,3.529,3.015,6.188s-1.827,5.065-2.907,6.24c-1.1-1.156-2.992-3.529-3.015-6.187S23.057,13.995,24.137,12.82ZM14.9,23.078c1.526.08,4.331.482,6.063,2.268s2.049,4.6,2.085,6.128c-1.526-.08-4.331-.482-6.063-2.267S14.936,24.607,14.9,23.078Z" transform="translate(-10.123 -9.996)"/><path class="a" d="M98.6,63.571a1.176,1.176,0,0,0-1.492,0L92,67.758a1.177,1.177,0,0,0-.429.908v7.075H87.927V68.666a1.175,1.175,0,0,0-.429-.908l-5.1-4.187a1.176,1.176,0,0,0-1.492,0l-5.1,4.187a1.177,1.177,0,0,0-.429.908v7.075H71.615V68.666a1.175,1.175,0,0,0-.429-.908l-5.1-4.187a1.176,1.176,0,0,0-1.492,0l-5.1,4.187a1.177,1.177,0,0,0-.429.908v7.075H55.3V68.666a1.175,1.175,0,0,0-.429-.908l-5.1-4.187a1.176,1.176,0,0,0-1.492,0l-5.1,4.187a1.177,1.177,0,0,0-.429.908v7.075H38.992V68.666a1.175,1.175,0,0,0-.429-.908l-5.1-4.187a1.176,1.176,0,0,0-1.492,0l-5.1,4.187a1.177,1.177,0,0,0-.429.908v7.075H22.68V68.666a1.175,1.175,0,0,0-.429-.908l-5.1-4.187a1.176,1.176,0,0,0-1.492,0l-5.1,4.187a1.177,1.177,0,0,0-.429.908V93.5A1.174,1.174,0,0,0,11.3,94.673H21.5A1.174,1.174,0,0,0,22.68,93.5V87.363h3.755V93.5a1.174,1.174,0,0,0,1.175,1.175H37.817A1.174,1.174,0,0,0,38.992,93.5V87.363h3.754V93.5a1.174,1.174,0,0,0,1.175,1.175H54.128A1.174,1.174,0,0,0,55.3,93.5V87.363h3.755V93.5a1.174,1.174,0,0,0,1.175,1.175H70.44A1.174,1.174,0,0,0,71.615,93.5V87.363H75.37V93.5a1.174,1.174,0,0,0,1.175,1.175H86.752A1.174,1.174,0,0,0,87.927,93.5V87.363h3.646V93.5a1.174,1.174,0,0,0,1.175,1.175h10.207A1.174,1.174,0,0,0,104.13,93.5V68.667a1.175,1.175,0,0,0-.429-.908ZM20.332,92.323H12.475v-23.1L16.4,66l3.928,3.222Zm2.35-7.31V78.091h3.755v6.922Zm13.961,7.31H28.786v-23.1L32.715,66l3.928,3.222Zm2.35-7.31V78.091h3.754v6.922Zm13.961,7.31H45.1v-23.1L49.026,66l3.928,3.222v23.1Zm2.35-7.31V78.091h3.755v6.922Zm13.962,7.31H61.411v-23.1L65.339,66l3.928,3.222v23.1Zm2.35-7.31V78.091h3.755v6.922Zm13.962,7.31H77.722v-23.1L81.65,66l3.928,3.222v23.1Zm2.35-7.31V78.091h3.646v6.922Zm13.852,7.31H93.923v-23.1L97.852,66l3.928,3.222v23.1Z" transform="translate(-10.123 -0.664)"/></svg>