<?xml version="1.0" encoding="utf-8"?>
<!-- Generator: Adobe Illustrator 22.0.0, SVG Export Plug-In . SVG Version: 6.00 Build 0)  -->
<svg version="1.1" id="Слой_1" xmlns="http://www.w3.org/2000/svg" xmlns:xlink="http://www.w3.org/1999/xlink" x="0px" y="0px"
	 viewBox="0 0 25 25" style="enable-background:new 0 0 25 25;" xml:space="preserve">
<style type="text/css">
	.st0{fill:#519A60;}
</style>
<g>
	<path class="st0" d="M11.7,24.3c0.4,0.9,1.2,0.9,1.6,0c1.9-3.9,6.5-13.4,6.6-13.8l0-0.1c0.3-0.8,0.4-1.7,0.4-2.6
		c0-4.3-3.5-7.9-7.9-7.9C8.2,0,4.6,3.5,4.6,7.9c0,0.6,0.1,1.3,0.2,1.9l0,0C5.1,10.6,9.8,20.4,11.7,24.3z M12.5,3.4
		c2.4,0,4.4,2,4.4,4.4c0,2.4-2,4.4-4.4,4.4c-2.4,0-4.4-2-4.4-4.4C8.1,5.4,10.1,3.4,12.5,3.4z"/>
</g>
</svg>
