<?xml version="1.0" encoding="utf-8"?>
<!-- Generator: Adobe Illustrator 24.3.0, SVG Export Plug-In . SVG Version: 6.00 Build 0)  -->
<svg version="1.1" id="Warstwa_1" xmlns="http://www.w3.org/2000/svg" xmlns:xlink="http://www.w3.org/1999/xlink" x="0px" y="0px"
	 viewBox="0 0 65.4 47.8" style="enable-background:new 0 0 65.4 47.8;" xml:space="preserve">
<style type="text/css">
	.st0{fill:#FFDC7C;}
	.st1{fill:#FFFFFF;}
</style>
<g id="Ресурс_1" transform="translate(7.5 4.5)">
	<g id="Layer_1" transform="translate(0 0)">
		<g transform="matrix(1, 0, 0, 1, -7.5, -4.5)">
			<circle id="Ellipse_8-2" class="st0" cx="20.7" cy="20.6" r="8.2"/>
		</g>
		<g transform="matrix(1, 0, 0, 1, -7.5, -4.5)">
			<path id="Path_38-2" class="st0" d="M20.6,9.2L20.6,9.2c-0.5,0-1-0.4-1-1v-7c0-0.5,0.4-1,1-1l0,0c0.5,0,1,0.4,1,1c0,0,0,0,0,0v7
				C21.6,8.8,21.2,9.2,20.6,9.2C20.6,9.2,20.6,9.2,20.6,9.2z"/>
		</g>
		<path id="Path_39" class="st0" d="M13.2,36.5L13.2,36.5c-0.5,0-1-0.4-1-1v-7c0-0.5,0.4-1,1-1l0,0c0.5,0,1,0.4,1,1v7
			C14.1,36,13.7,36.5,13.2,36.5C13.2,36.5,13.2,36.5,13.2,36.5L13.2,36.5z"/>
		<g transform="matrix(1, 0, 0, 1, -7.5, -4.5)">
			<path id="Path_40-2" class="st0" d="M28.7,12.5L28.7,12.5c-0.4-0.4-0.4-1,0-1.4c0,0,0,0,0,0l5-5c0.4-0.4,1-0.4,1.4,0c0,0,0,0,0,0
				l0,0c0.4,0.4,0.4,1,0,1.4c0,0,0,0,0,0l-5,5C29.7,12.9,29.1,12.9,28.7,12.5C28.7,12.5,28.7,12.5,28.7,12.5z"/>
		</g>
		<g transform="matrix(1, 0, 0, 1, -7.5, -4.5)">
			<path id="Path_41-2" class="st0" d="M6.2,35L6.2,35c-0.4-0.4-0.4-1,0-1.4c0,0,0,0,0,0l5-5c0.4-0.4,1-0.4,1.4,0c0,0,0,0,0,0l0,0
				c0.4,0.4,0.4,1,0,1.4c0,0,0,0,0,0l-5,5C7.3,35.4,6.6,35.4,6.2,35C6.2,35,6.2,35,6.2,35z"/>
		</g>
		<path id="Path_42" class="st0" d="M24.5,16.1L24.5,16.1c0-0.5,0.4-1,1-1h7c0.5,0,1,0.4,1,1l0,0c0,0.5-0.4,1-1,1h-7
			C25,17.1,24.5,16.6,24.5,16.1z"/>
		<g transform="matrix(1, 0, 0, 1, -7.5, -4.5)">
			<path id="Path_43-2" class="st0" d="M0.3,20.6L0.3,20.6c0-0.5,0.4-1,1-1h7c0.5,0,1,0.4,1,1l0,0c0,0.5-0.4,1-1,1h-7
				C0.7,21.6,0.3,21.1,0.3,20.6z"/>
		</g>
		<path id="Path_44" class="st0" d="M21.2,24.1L21.2,24.1c0.4-0.4,1-0.4,1.4,0c0,0,0,0,0,0l5,5c0.4,0.4,0.4,1,0,1.4c0,0,0,0,0,0l0,0
			c-0.4,0.4-1,0.4-1.4,0c0,0,0,0,0,0l-5-5C20.8,25.1,20.8,24.5,21.2,24.1C21.2,24.1,21.2,24.1,21.2,24.1z"/>
		<g transform="matrix(1, 0, 0, 1, -7.5, -4.5)">
			<path id="Path_45-2" class="st0" d="M6.2,6.2L6.2,6.2c0.4-0.4,1-0.4,1.4,0c0,0,0,0,0,0l5,5c0.4,0.4,0.4,1,0,1.4c0,0,0,0,0,0l0,0
				c-0.4,0.4-1,0.4-1.4,0c0,0,0,0,0,0l-5-5C5.9,7.2,5.9,6.6,6.2,6.2C6.2,6.2,6.2,6.2,6.2,6.2L6.2,6.2z"/>
		</g>
		<g transform="matrix(1, 0, 0, 1, -7.5, -4.5)">
			<path id="Path_46-2" class="st1" d="M58.4,35L58.4,35c2-4.7-0.2-10.2-4.9-12.2c-2.8-1.2-6-1-8.6,0.7c-2.7-6.6-10.2-9.8-16.8-7.2
				c-5.5,2.2-8.8,7.8-8,13.7H20c-4.8,0-8.7,3.9-8.7,8.7c0,4.8,3.9,8.7,8.7,8.7h38.4c3.4,0.1,6.2-2.6,6.3-6s-2.6-6.2-6-6.3
				C58.6,35,58.5,35,58.4,35L58.4,35z"/>
		</g>
	</g>
</g>
</svg>
