<?xml version="1.0" encoding="utf-8"?>
<!-- Generator: Adobe Illustrator 24.3.0, SVG Export Plug-In . SVG Version: 6.00 Build 0)  -->
<svg version="1.1" id="Warstwa_1" xmlns="http://www.w3.org/2000/svg" xmlns:xlink="http://www.w3.org/1999/xlink" x="0px" y="0px"
	 viewBox="0 0 319 55" style="enable-background:new 0 0 319 55;" xml:space="preserve">
<style type="text/css">
	.st0{enable-background:new    ;}
	.st1{fill:#FFFFFF;}
</style>
<g id="Group_595" transform="translate(-42 -23)">
	<g class="st0">
		<path class="st1" d="M80.1,40.4l-7.4,26.5h-6.3l-5-18.9l-5.2,18.9L50,67l-7.1-26.6h5.7L53.2,61l5.4-20.6h5.9l5.1,20.5l4.7-20.5
			H80.1z"/>
		<path class="st1" d="M103.7,45.9l-13,31H85l4.6-10.5l-8.4-20.5h6l5.4,14.7L98,45.9H103.7z"/>
		<path class="st1" d="M122.6,46.6c1.2,0.7,2.2,1.7,2.9,3.1c0.7,1.4,1,3,1,4.9v12.3h-5.3V55.3c0-1.7-0.4-3-1.3-3.9
			c-0.8-0.9-2-1.3-3.4-1.3c-1.5,0-2.6,0.5-3.5,1.3c-0.8,0.9-1.3,2.2-1.3,3.9v11.6h-5.3V38.8h5.3v9.7c0.7-0.9,1.6-1.6,2.7-2.1
			c1.1-0.5,2.4-0.8,3.8-0.8C120,45.6,121.4,45.9,122.6,46.6z"/>
		<path class="st1" d="M135.5,65.9c-1.6-0.9-2.9-2.2-3.8-3.8c-0.9-1.6-1.4-3.5-1.4-5.7c0-2.2,0.5-4.1,1.4-5.7c1-1.6,2.2-2.9,3.9-3.8
			c1.6-0.9,3.5-1.3,5.5-1.3c2,0,3.9,0.4,5.5,1.3c1.6,0.9,2.9,2.2,3.9,3.8c1,1.6,1.4,3.5,1.4,5.7c0,2.2-0.5,4.1-1.5,5.7
			c-1,1.6-2.3,2.9-4,3.8c-1.7,0.9-3.5,1.3-5.6,1.3C139,67.3,137.1,66.8,135.5,65.9z M143.7,61.9c0.8-0.5,1.5-1.2,2-2.1
			c0.5-0.9,0.8-2.1,0.8-3.4c0-2-0.5-3.5-1.6-4.6c-1.1-1.1-2.3-1.6-3.9-1.6s-2.8,0.5-3.8,1.6c-1,1.1-1.5,2.6-1.5,4.6
			c0,2,0.5,3.5,1.5,4.6c1,1.1,2.3,1.6,3.8,1.6C141.9,62.6,142.9,62.4,143.7,61.9z"/>
		<path class="st1" d="M155.8,50.7c0.8-1.6,2-2.9,3.5-3.8c1.5-0.9,3.1-1.3,4.9-1.3c1.4,0,2.7,0.3,3.9,0.9c1.2,0.6,2.2,1.4,3,2.4v-10
			h5.4v28.1H171v-3.1c-0.7,1-1.6,1.9-2.8,2.5c-1.2,0.6-2.6,1-4.1,1c-1.8,0-3.4-0.5-4.9-1.4s-2.6-2.2-3.5-3.9
			c-0.8-1.7-1.3-3.6-1.3-5.7C154.5,54.2,154.9,52.3,155.8,50.7z M170.3,53.1c-0.5-0.9-1.2-1.6-2.1-2.1c-0.9-0.5-1.8-0.7-2.8-0.7
			c-1,0-1.9,0.2-2.7,0.7c-0.8,0.5-1.5,1.2-2,2.1c-0.5,0.9-0.8,2-0.8,3.3s0.3,2.4,0.8,3.3c0.5,1,1.2,1.7,2.1,2.2
			c0.8,0.5,1.8,0.8,2.7,0.8c1,0,1.9-0.2,2.8-0.7s1.5-1.2,2.1-2.1c0.5-0.9,0.8-2,0.8-3.3S170.8,54,170.3,53.1z"/>
		<path class="st1" d="M201.5,45.9v21.1h-5.4v-2.7c-0.7,0.9-1.6,1.6-2.7,2.1c-1.1,0.5-2.3,0.8-3.6,0.8c-1.6,0-3.1-0.3-4.4-1
			c-1.3-0.7-2.3-1.7-3-3.1c-0.7-1.4-1.1-3-1.1-4.8V45.9h5.3v11.6c0,1.7,0.4,3,1.3,3.9c0.8,0.9,2,1.3,3.4,1.3c1.5,0,2.6-0.4,3.5-1.3
			c0.8-0.9,1.3-2.2,1.3-3.9V45.9H201.5z"/>
		<path class="st1" d="M212.1,70.4c0,2.3-0.6,4-1.7,5c-1.2,1-2.8,1.5-5,1.5H203v-4.5h1.5c0.8,0,1.4-0.2,1.7-0.5
			c0.3-0.3,0.5-0.8,0.5-1.5V45.9h5.3V70.4z M207.1,42.5c-0.6-0.6-0.9-1.3-0.9-2.2s0.3-1.6,0.9-2.2c0.6-0.6,1.4-0.9,2.4-0.9
			c0.9,0,1.7,0.3,2.3,0.9c0.6,0.6,0.9,1.3,0.9,2.2s-0.3,1.6-0.9,2.2c-0.6,0.6-1.4,0.9-2.3,0.9C208.5,43.4,207.7,43.1,207.1,42.5z"/>
		<path class="st1" d="M221.5,66.2c-1.5-0.6-2.7-1.5-3.5-2.7c-0.9-1.2-1.3-2.6-1.3-4.2h5.7c0.1,1.1,0.5,2,1.2,2.6
			c0.7,0.6,1.7,1,2.9,1c1.2,0,2.2-0.3,2.9-0.9c0.7-0.6,1.1-1.4,1.1-2.3c0-0.8-0.2-1.4-0.7-1.9c-0.5-0.5-1.1-0.9-1.8-1.2
			s-1.7-0.6-3-1c-1.7-0.5-3.1-1-4.2-1.5c-1.1-0.5-2-1.2-2.8-2.2c-0.8-1-1.2-2.3-1.2-4c0-1.6,0.4-2.9,1.2-4.1s1.9-2.1,3.3-2.7
			c1.4-0.6,3-0.9,4.9-0.9c2.7,0,5,0.7,6.7,2s2.7,3.2,2.8,5.6h-5.9c-0.1-0.9-0.4-1.7-1.2-2.3c-0.7-0.6-1.7-0.9-2.9-0.9
			c-1,0-1.9,0.3-2.5,0.8c-0.6,0.5-0.9,1.3-0.9,2.3c0,0.7,0.2,1.3,0.7,1.8c0.5,0.5,1.1,0.8,1.7,1.1c0.7,0.3,1.7,0.6,2.9,1
			c1.7,0.5,3.1,1,4.2,1.5c1.1,0.5,2,1.3,2.8,2.3c0.8,1,1.2,2.3,1.2,4c0,1.4-0.4,2.7-1.1,4c-0.7,1.2-1.8,2.2-3.2,2.9
			c-1.4,0.7-3.1,1.1-5.1,1.1C224.6,67.2,223,66.9,221.5,66.2z"/>
		<path class="st1" d="M240.4,50.7c0.8-1.6,2-2.9,3.5-3.8c1.5-0.9,3.1-1.3,4.9-1.3c1.6,0,2.9,0.3,4.1,0.9c1.2,0.6,2.1,1.4,2.8,2.4
			v-3h5.4v21.1h-5.4v-3.1c-0.7,1-1.6,1.8-2.8,2.5c-1.2,0.6-2.6,1-4.2,1c-1.8,0-3.4-0.5-4.8-1.4c-1.5-0.9-2.6-2.2-3.5-3.9
			c-0.8-1.7-1.3-3.6-1.3-5.7C239.1,54.2,239.5,52.3,240.4,50.7z M254.9,53.1c-0.5-0.9-1.2-1.6-2.1-2.1c-0.9-0.5-1.8-0.7-2.8-0.7
			c-1,0-1.9,0.2-2.7,0.7c-0.8,0.5-1.5,1.2-2,2.1s-0.8,2-0.8,3.3s0.3,2.4,0.8,3.3c0.5,1,1.2,1.7,2.1,2.2s1.8,0.8,2.7,0.8
			c1,0,1.9-0.2,2.8-0.7s1.5-1.2,2.1-2.1c0.5-0.9,0.8-2,0.8-3.3S255.4,54,254.9,53.1z"/>
		<path class="st1" d="M298.6,47.9c1.6,1.6,2.4,3.8,2.4,6.6v12.3h-5.3V55.3c0-1.6-0.4-2.9-1.3-3.8c-0.8-0.9-2-1.3-3.4-1.3
			c-1.4,0-2.6,0.4-3.4,1.3c-0.8,0.9-1.3,2.1-1.3,3.8v11.6H281V55.3c0-1.6-0.4-2.9-1.3-3.8c-0.8-0.9-2-1.3-3.4-1.3
			c-1.5,0-2.6,0.4-3.5,1.3c-0.8,0.9-1.3,2.1-1.3,3.8v11.6h-5.3V45.9h5.3v2.5c0.7-0.9,1.6-1.6,2.6-2.1c1.1-0.5,2.3-0.8,3.6-0.8
			c1.6,0,3.1,0.3,4.4,1c1.3,0.7,2.3,1.7,3,3c0.7-1.2,1.7-2.2,3-2.9c1.3-0.7,2.7-1.1,4.2-1.1C295,45.6,297,46.4,298.6,47.9z"/>
	</g>
	<g id="noun_green_3666046" transform="translate(306 13.358)">
		<path id="Path_716" class="st1" d="M31.3,37.6l7.8-1.6l0,0c0.8-0.2,1.2-1,1-1.8c-0.1-0.2-0.2-0.4-0.3-0.6
			c-0.2-0.2-0.4-0.5-0.7-0.6c-0.8-0.6-1.9-0.7-2.8-0.5c-2.1,0.5-4.3,0.8-6.5,0.8c-2.3-0.1-4.5-0.7-6.6-1.5c-2-0.9-4.2-1.4-6.5-1.5
			C12.3,30.4,6.3,40.4,5.1,42.4c-0.2,0.4-0.2,0.8,0.1,1.1l6.5,8.4c0.2,0.2,0.4,0.4,0.7,0.4h0.1c0.3,0,0.5-0.1,0.7-0.3l4.4-4.7
			c1.6-1.7,4-2.4,6.2-1.8c3.4,0.9,7,1.3,10.5,1.3c7.1,0,15.4-5.5,18.6-7.8c1-0.8,1.5-2.1,1.2-3.4c-0.3-1-1.1-1.9-2.1-2.2
			c-0.7-0.2-1.4-0.2-2,0.1L42.4,36c-0.7,1-1.7,1.7-2.9,2l-7.8,1.6c-0.1,0-0.1,0-0.2,0c-0.6,0-1-0.4-1-1
			C30.5,38.1,30.8,37.7,31.3,37.6z"/>
		<path id="Path_717" class="st1" d="M54.3,11.6c-0.4-0.1-0.8,0-1.1,0.3c0,0-1.9,2.2-6.5,3.1c-4.8,1-5.5,6-5.2,8.8
			c-0.8,1.8-1.5,3.8-1.9,5.8c-0.2-0.7-0.5-1.4-0.8-2.1c0.2-2.1-0.3-5.9-4-6.6c-1.7-0.2-3.3-1-4.6-2.2c-0.3-0.3-0.7-0.4-1.1-0.3
			s-0.7,0.5-0.7,0.9c0,0.2-0.1,5.6,2.4,8.2c1.1,1.1,2.6,1.6,4.2,1.6c0.7,0,1.4-0.1,2.1-0.3c0.1,0.4,0.3,0.9,0.5,1.5
			c0.9,0.1,1.8,0.4,2.5,0.9c0.3,0.2,0.7,0.5,1,0.8c0.2-1.4,0.5-2.8,0.9-4.1c0.3-1,0.6-1.9,1-2.8c1,0.3,2.1,0.4,3.2,0.4
			c1,0,1.9-0.1,2.8-0.4c1-0.3,1.9-0.9,2.7-1.6c3.4-3.4,3.3-10.7,3.3-11C55,12.1,54.7,11.8,54.3,11.6z"/>
	</g>
</g>
</svg>
