<svg version="1.1" id="Warstwa_1" xmlns="http://www.w3.org/2000/svg" x="0" y="0" viewBox="0 0 319 55" xml:space="preserve"><style>.st1{fill:#fff}</style><g id="Group_595" transform="translate(-42 -23)"><path class="st1" d="M80.1 40.4l-7.4 26.5h-6.3l-5-18.9-5.2 18.9-6.2.1-7.1-26.6h5.7L53.2 61l5.4-20.6h5.9l5.1 20.5 4.7-20.5h5.8zm23.6 5.5l-13 31H85l4.6-10.5-8.4-20.5h6l5.4 14.7L98 45.9h5.7zm18.9.7c1.2.7 2.2 1.7 2.9 3.1.7 1.4 1 3 1 4.9v12.3h-5.3V55.3c0-1.7-.4-3-1.3-3.9-.8-.9-2-1.3-3.4-1.3-1.5 0-2.6.5-3.5 1.3-.8.9-1.3 2.2-1.3 3.9v11.6h-5.3V38.8h5.3v9.7c.7-.9 1.6-1.6 2.7-2.1s2.4-.8 3.8-.8c1.8 0 3.2.3 4.4 1zm12.9 19.3c-1.6-.9-2.9-2.2-3.8-3.8-.9-1.6-1.4-3.5-1.4-5.7s.5-4.1 1.4-5.7c1-1.6 2.2-2.9 3.9-3.8 1.6-.9 3.5-1.3 5.5-1.3s3.9.4 5.5 1.3 2.9 2.2 3.9 3.8c1 1.6 1.4 3.5 1.4 5.7s-.5 4.1-1.5 5.7c-1 1.6-2.3 2.9-4 3.8-1.7.9-3.5 1.3-5.6 1.3-1.8.1-3.7-.4-5.3-1.3zm8.2-4c.8-.5 1.5-1.2 2-2.1.5-.9.8-2.1.8-3.4 0-2-.5-3.5-1.6-4.6-1.1-1.1-2.3-1.6-3.9-1.6s-2.8.5-3.8 1.6-1.5 2.6-1.5 4.6c0 2 .5 3.5 1.5 4.6 1 1.1 2.3 1.6 3.8 1.6.9 0 1.9-.2 2.7-.7zm12.1-11.2c.8-1.6 2-2.9 3.5-3.8 1.5-.9 3.1-1.3 4.9-1.3 1.4 0 2.7.3 3.9.9 1.2.6 2.2 1.4 3 2.4v-10h5.4V67H171v-3.1c-.7 1-1.6 1.9-2.8 2.5-1.2.6-2.6 1-4.1 1-1.8 0-3.4-.5-4.9-1.4s-2.6-2.2-3.5-3.9c-.8-1.7-1.3-3.6-1.3-5.7.1-2.2.5-4.1 1.4-5.7zm14.5 2.4c-.5-.9-1.2-1.6-2.1-2.1-.9-.5-1.8-.7-2.8-.7-1 0-1.9.2-2.7.7-.8.5-1.5 1.2-2 2.1-.5.9-.8 2-.8 3.3s.3 2.4.8 3.3c.5 1 1.2 1.7 2.1 2.2.8.5 1.8.8 2.7.8 1 0 1.9-.2 2.8-.7s1.5-1.2 2.1-2.1c.5-.9.8-2 .8-3.3s-.4-2.6-.9-3.5zm31.2-7.2V67h-5.4v-2.7c-.7.9-1.6 1.6-2.7 2.1s-2.3.8-3.6.8c-1.6 0-3.1-.3-4.4-1-1.3-.7-2.3-1.7-3-3.1-.7-1.4-1.1-3-1.1-4.8V45.9h5.3v11.6c0 1.7.4 3 1.3 3.9.8.9 2 1.3 3.4 1.3 1.5 0 2.6-.4 3.5-1.3.8-.9 1.3-2.2 1.3-3.9V45.9h5.4zm10.6 24.5c0 2.3-.6 4-1.7 5-1.2 1-2.8 1.5-5 1.5H203v-4.5h1.5c.8 0 1.4-.2 1.7-.5.3-.3.5-.8.5-1.5V45.9h5.3v24.5zm-5-27.9c-.6-.6-.9-1.3-.9-2.2s.3-1.6.9-2.2c.6-.6 1.4-.9 2.4-.9.9 0 1.7.3 2.3.9.6.6.9 1.3.9 2.2s-.3 1.6-.9 2.2c-.6.6-1.4.9-2.3.9-1 0-1.8-.3-2.4-.9zm14.4 23.7c-1.5-.6-2.7-1.5-3.5-2.7-.9-1.2-1.3-2.6-1.3-4.2h5.7c.1 1.1.5 2 1.2 2.6.7.6 1.7 1 2.9 1s2.2-.3 2.9-.9c.7-.6 1.1-1.4 1.1-2.3 0-.8-.2-1.4-.7-1.9-.5-.5-1.1-.9-1.8-1.2s-1.7-.6-3-1c-1.7-.5-3.1-1-4.2-1.5s-2-1.2-2.8-2.2c-.8-1-1.2-2.3-1.2-4 0-1.6.4-2.9 1.2-4.1s1.9-2.1 3.3-2.7c1.4-.6 3-.9 4.9-.9 2.7 0 5 .7 6.7 2s2.7 3.2 2.8 5.6h-5.9c-.1-.9-.4-1.7-1.2-2.3-.7-.6-1.7-.9-2.9-.9-1 0-1.9.3-2.5.8-.6.5-.9 1.3-.9 2.3 0 .7.2 1.3.7 1.8.5.5 1.1.8 1.7 1.1.7.3 1.7.6 2.9 1 1.7.5 3.1 1 4.2 1.5s2 1.3 2.8 2.3c.8 1 1.2 2.3 1.2 4 0 1.4-.4 2.7-1.1 4-.7 1.2-1.8 2.2-3.2 2.9-1.4.7-3.1 1.1-5.1 1.1-1.8-.2-3.4-.5-4.9-1.2zm18.9-15.5c.8-1.6 2-2.9 3.5-3.8 1.5-.9 3.1-1.3 4.9-1.3 1.6 0 2.9.3 4.1.9 1.2.6 2.1 1.4 2.8 2.4v-3h5.4V67h-5.4v-3.1c-.7 1-1.6 1.8-2.8 2.5-1.2.6-2.6 1-4.2 1-1.8 0-3.4-.5-4.8-1.4-1.5-.9-2.6-2.2-3.5-3.9-.8-1.7-1.3-3.6-1.3-5.7 0-2.2.4-4.1 1.3-5.7zm14.5 2.4c-.5-.9-1.2-1.6-2.1-2.1-.9-.5-1.8-.7-2.8-.7-1 0-1.9.2-2.7.7-.8.5-1.5 1.2-2 2.1s-.8 2-.8 3.3.3 2.4.8 3.3c.5 1 1.2 1.7 2.1 2.2s1.8.8 2.7.8c1 0 1.9-.2 2.8-.7s1.5-1.2 2.1-2.1c.5-.9.8-2 .8-3.3s-.4-2.6-.9-3.5zm43.7-5.2c1.6 1.6 2.4 3.8 2.4 6.6v12.3h-5.3V55.3c0-1.6-.4-2.9-1.3-3.8-.8-.9-2-1.3-3.4-1.3s-2.6.4-3.4 1.3c-.8.9-1.3 2.1-1.3 3.8v11.6H281V55.3c0-1.6-.4-2.9-1.3-3.8-.8-.9-2-1.3-3.4-1.3-1.5 0-2.6.4-3.5 1.3-.8.9-1.3 2.1-1.3 3.8v11.6h-5.3v-21h5.3v2.5c.7-.9 1.6-1.6 2.6-2.1 1.1-.5 2.3-.8 3.6-.8 1.6 0 3.1.3 4.4 1 1.3.7 2.3 1.7 3 3 .7-1.2 1.7-2.2 3-2.9 1.3-.7 2.7-1.1 4.2-1.1 2.7.1 4.7.9 6.3 2.4z"/><g id="noun_green_3666046" transform="translate(306 13.358)"><path id="Path_716" class="st1" d="M31.3 37.6l7.8-1.6c.8-.2 1.2-1 1-1.8l-.3-.6c-.2-.2-.4-.5-.7-.6-.8-.6-1.9-.7-2.8-.5-2.1.5-4.3.8-6.5.8-2.3-.1-4.5-.7-6.6-1.5-2-.9-4.2-1.4-6.5-1.5-4.4.1-10.4 10.1-11.6 12.1-.2.4-.2.8.1 1.1l6.5 8.4c.2.2.4.4.7.4h.1c.3 0 .5-.1.7-.3l4.4-4.7c1.6-1.7 4-2.4 6.2-1.8 3.4.9 7 1.3 10.5 1.3 7.1 0 15.4-5.5 18.6-7.8 1-.8 1.5-2.1 1.2-3.4-.3-1-1.1-1.9-2.1-2.2-.7-.2-1.4-.2-2 .1L42.4 36c-.7 1-1.7 1.7-2.9 2l-7.8 1.6h-.2c-.6 0-1-.4-1-1 0-.5.3-.9.8-1z"/><path id="Path_717" class="st1" d="M54.3 11.6c-.4-.1-.8 0-1.1.3 0 0-1.9 2.2-6.5 3.1-4.8 1-5.5 6-5.2 8.8-.8 1.8-1.5 3.8-1.9 5.8-.2-.7-.5-1.4-.8-2.1.2-2.1-.3-5.9-4-6.6-1.7-.2-3.3-1-4.6-2.2-.3-.3-.7-.4-1.1-.3s-.7.5-.7.9c0 .2-.1 5.6 2.4 8.2 1.1 1.1 2.6 1.6 4.2 1.6.7 0 1.4-.1 2.1-.3.1.4.3.9.5 1.5.9.1 1.8.4 2.5.9.3.2.7.5 1 .8.2-1.4.5-2.8.9-4.1.3-1 .6-1.9 1-2.8 1 .3 2.1.4 3.2.4 1 0 1.9-.1 2.8-.4 1-.3 1.9-.9 2.7-1.6 3.4-3.4 3.3-10.7 3.3-11 0-.4-.3-.7-.7-.9z"/></g></g></svg>