<svg version="1.1" id="Warstwa_1" xmlns="http://www.w3.org/2000/svg" xmlns:xlink="http://www.w3.org/1999/xlink" x="0" y="0" viewBox="0 0 1023 629.2" xml:space="preserve"><style>.st2{fill:none;stroke:#60a47d;stroke-width:1.5;stroke-miterlimit:10}.st3{opacity:.8}.st4{stroke-width:1.1006;stroke-miterlimit:10.0056}.st4,.st5,.st6{fill:none;stroke:#60a47d}.st5{stroke-width:1.1;stroke-miterlimit:10}.st6{stroke-width:1.1001;stroke-miterlimit:10.0011}</style><defs><path id="SVGID_1_" d="M0 0h1023.5v629.2H0z"/></defs><clipPath id="SVGID_2_"><use xlink:href="#SVGID_1_" overflow="visible"/></clipPath><g clip-path="url(#SVGID_2_)"><g id="TÅO_LOGOWANIa"><g id="Component_5_1" transform="translate(1.067 -52.013)"><path id="Rectangle_353" fill="#fff" d="M2.4 51.2h1020v630H2.4z"/><g id="Group_46_3_" transform="rotate(180 292.97 319.697)"><path id="Path_510" class="st2" d="M31.5 1c-12.9 1.4-29.7 9.3-34 22.6 3.7 1.4 9.8.4 13.7-.4 5.2-.9 10-2.9 14.3-6 5.2-3.7 8.3-10.8 11-16.2V.8c-1.7 0-3.4.1-5 .2"/><path id="Path_511" class="st2" d="M35.1 1.8c-6.6 5.3-13.7 10-21.2 13.9-4.4 2.5-10.4 7-15.6 7.7"/><path id="Path_512" class="st2" d="M1 20.1c5.8-5.2 12-11 19.3-14.3"/><path id="Path_513" class="st2" d="M13.9 19.2c4.4-1.9 7.3-4.2 11.2-7.3"/><path id="Path_514" class="st2" d="M23.2 6.6c1.7-.8 3.7-1.4 5.4-2.3"/><g id="Group_45_3_" transform="translate(31.529 2.751)"><path id="Path_515" class="st2" d="M17.9 3.2C7 10.3-4.4 24.9-2.2 38.7c3.9-.4 9-4.1 12.1-6.5 4.2-3.1 7.6-7.2 10.1-11.8C23 14.8 22.5 7 22.5 1l-.1-.2c-1.6.7-3.1 1.5-4.5 2.4"/><path id="Path_516" class="st2" d="M21.5 2.3C18 10 13.8 17.3 8.9 24.2 6 28.5 2.7 35.1-1.6 38.2"/><path id="Path_517" class="st2" d="M-.7 34C2.1 26.8 5 18.8 10.1 12.6"/><path id="Path_518" class="st2" d="M10.4 27.3c3.1-3.7 4.6-7.1 6.7-11.6"/><path id="Path_519" class="st2" d="M13 12c1.2-1.5 2.7-2.9 3.8-4.5"/></g></g><g id="Group_38_3_" transform="rotate(157 290.173 153.134)" class="st3"><path id="Path_390" class="st4" d="M60.2 17.1C40.5 14.3 29.4 24 20.7 41.9c-9.2 19.3-1.8 39.1-3.2 59.4-1.4 21.2-17 39.1-19.8 60.3-3.2 24.9 23.9 33.1 43.7 34.5 19.3.9 46-7.8 45.6-30.8-.4-19.6-18.5-33.2-19.8-52.4-.1-1.6-.1-3.1.1-4.7.5-8.7 3.2-12.4 7.8-24.4 3.2-8.3 5.7-15.3 6.9-23.9 2.2-17 .8-39.1-21.8-42.8"/><path id="Path_391" class="st4" d="M46 17.4c-.3-4-2.8-8.1-3.4-12.3-.3-1.2-.8-3.1.2-4C44-.1 48.5.5 50.2.5c4.1-.3 8.7-1.1 12.9-.6 1.4.1 1.6-.3 2.2 1.1.5 1.1-.2 3.4-.2 4.4-.2 2.5-.2 4.8-.3 7.2-.2 1.8-.5 3.4-.5 5.1"/><path id="Path_392" class="st4" d="M49 16.8c0-3.1-1.4-6.4-2.1-9.4-.6-2.2-.9-5.1-1.7-6.8"/><path id="Path_393" class="st4" d="M53.5 16.5c-.6-3.5-1.4-7-2.5-10.4-.5-1.8-.5-4-1.1-5.7"/><path id="Path_394" class="st4" d="M56.1 16.5c0-2.8-.2-5.6-.6-8.4-.2-2.1-.2-5.8-.6-7.5"/><path id="Path_395" class="st4" d="M59.6 16.5c0-5.4.5-11.2.2-16.6"/><path id="Path_396" class="st4" d="M62.2 17.4c0-5.8.2-11.8.2-17.6"/><path id="Path_397" class="st4" d="M25.3 193.5c-8.6-23.9-6.4-47.3 5.8-69.7 7.4-13.5 5.2-27 2.8-41.7-1.5-8.9-2.8-19.6-.9-28.5 1.5-7.4 6.1-14.4 9.2-21.2 2.1-4.9 5.8-9.5 6.1-15"/><path id="Path_398" class="st4" d="M67 191.7c-.3-1.8-1.8-2.1-2.8-3.7-3.7-4.9-6.7-10.2-8.9-16-4.6-12.3-5.2-25.2-5.5-38.4-.4-13.2 1.6-26.4 5.8-39 5.2-15.3 13.2-31.9 11.7-48.5C66.1 36 63 26.2 58.1 17.3"/><path id="Path_399" class="st4" d="M49.8 40.1c-6.4 11.7-8 25.5-8 38.4"/><path id="Path_400" class="st4" d="M54.7 60.3c0 7.1-.6 12.6-3.4 19.3"/><path id="Path_401" class="st4" d="M73.7 36.4c1.5 12.9-.6 23.6-5.5 35.3"/><path id="Path_402" class="st4" d="M68.5 83.7c.3 5.2-1.8 10.1-4.3 14.7"/><path id="Path_403" class="st4" d="M32.6 37.9c-4.9 12.9-7.1 23.6-7.1 37.4"/><path id="Path_404" class="st4" d="M26.2 85.8c-.3 4 0 7.7 0 11.7"/><path id="Path_405" class="st4" d="M22.8 118.6c-.3 6.4-6.4 12.3-8.3 18.4-2.5 7.1-4.6 15-2.8 22.7"/><path id="Path_406" class="st4" d="M39.4 126.6c-2.8 9.8-5.8 18.4-5.5 28.8.3 9.8 4 16.6 7.4 25.8"/><path id="Path_407" class="st4" d="M41.5 145.6c.3 4 .3 8 .6 11.7"/><path id="Path_408" class="st4" d="M45.8 100.8c-.3 2.8-.7 5.5-1.2 8.3"/><path id="Path_409" class="st4" d="M58.7 121.4c-.6 12-.3 23.9 5.2 34.7 3.4 6.4 8.9 16 4.3 23"/><path id="Path_410" class="st4" d="M67.6 143.2c5.2 6.4 6.1 11.7 6.1 19.6"/><path id="Path_411" class="st4" d="M5.6 166.8c1.2 4.3 2.1 8.6 4.3 12.6"/><path id="Path_412" class="st4" d="M49.8 179.4c.6 1.5.9 3.1 1.5 4.9"/><path id="Path_413" class="st4" d="M29.3 176.9c1 2.7 1.8 5.5 2.5 8.3"/><path id="Path_414" class="st4" d="M48.3 84.3c0 2.4-.6 4.8-1.5 7.1"/><path id="Path_415" class="st4" d="M57.2 35.2c1.2 4 2.1 8.9.9 13.2"/><path id="Path_416" class="st4" d="M67 22c1 1.9 1.8 3.8 2.5 5.8"/><path id="Path_417" class="st4" d="M54.7 23.2c-.3 2.1-.7 4.1-1.2 6.1"/><path id="Path_418" class="st4" d="M39.7 26.9c-1.2 1.5-2.1 2.8-3.4 4.3"/><path id="Path_419" class="st4" d="M23.7 47.8c-.4 1.9-.6 3.9-.6 5.8"/><path id="Path_420" class="st4" d="M61.5 106.7c0 2.5.6 4.6.6 7.1"/><path id="Path_421" class="st4" d="M80.5 162.8c.9 4.9.3 8-2.1 12.3"/><path id="Path_422" class="st4" d="M29.6 142c-.9 4.6-2.1 8.9-2.8 13.5"/><path id="Path_423" class="st4" d="M66.7 129.4c.3 1.8.9 3.7 1.2 5.5"/><path id="Path_424" class="st4" d="M30.2 103.9c0 3.7 0 7.4-1.2 11"/><path id="Path_425" class="st4" d="M13.3 128.8c-1.1 3.9-2.5 7.7-4.3 11.4"/><path id="Path_426" class="st4" d="M46.7 157.3c.6 1.4 1.2 2.8 1.5 4.3"/></g><g id="Group_543" transform="rotate(74 357.438 550.186)" class="st3"><path id="Path_670" class="st5" d="M16.9 10.3C9.3 14.5.9 22.2 6.3 31.1c4.4 7.6 20.1 14.9 29.1 14.2 12.2-1.1 8-20.2 5.8-27.8C38 5.9 29.2 4.8 19.7 9c-.9.4-1.9.7-2.8 1.1"/><path id="Path_671" class="st5" d="M16.8 10.1C8.7 13.6 8 2.3 4.5-1.6c4.6 3.3 11.3 5.4 12.1 11.7"/><path id="Path_672" class="st5" d="M16.7 9.3c-1.3-4-1.4-8.7 1.2-12 2.1 3.2 2 9.8-.8 12.7"/><path id="Path_673" class="st5" d="M16.9 10.3c-4.7 4.3-12 3.9-16.3-.8-.3-.2-.5-.5-.7-.7C2.5 8 6.2 6 8.6 6.9"/><path id="Path_674" class="st5" d="M8.4 23c.4.7 1 1.3 1.7 1.7"/><path id="Path_675" class="st5" d="M16.7 16.7c.8.7 1.5 1.5 2 2.4"/><path id="Path_676" class="st5" d="M28 11.1c.8.4 1.4 1.1 1.7 2"/><path id="Path_677" class="st5" d="M16.8 24.8c.5.7 1.2 1.3 1.9 1.7"/><path id="Path_678" class="st5" d="M25.2 19.8c.6.5 1.2 1.1 1.7 1.7"/><path id="Path_679" class="st5" d="M17.1 32.9c1.1.8 2.2 1.9 3.3 2.8"/><path id="Path_680" class="st5" d="M25.5 27.9c.5.4 1.3.8 1.9 1.2"/><path id="Path_681" class="st5" d="M34.3 19.9c.6.9 1.2 1.6 1.8 2.7"/><path id="Path_682" class="st5" d="M27.4 34.6c.8.6 1.4 1.3 2.2 1.9"/><path id="Path_683" class="st5" d="M34.1 27.8c.6.7 1.2 1.3 2 2.2"/><path id="Path_684" class="st5" d="M35.6 37.7l1.7 2"/><path id="Path_685" class="st5" d="M30.6 41c.8.4 1.4 1 1.9 1.7"/><path id="Path_686" class="st5" d="M39.4 30.8c.5.4.9 1 1.2 1.6"/><path id="Path_687" class="st5" d="M34.6 12c.6.8 1.3 1.5 2 2.2"/><path id="Path_688" class="st5" d="M10.1 30.9c.4.6.9 1.1 1.4 1.5"/><path id="Path_689" class="st5" d="M15.8 9.9c-1.1-1.1-2.5-2.4-3.7-3.7"/></g><g id="Group_553" transform="rotate(-157 511.582 16.39)" class="st3"><path id="Path_520" class="st4" d="M40.4 189.2c2.7-10.2 3.9-25.4 4.2-35.9-.2-7.7-2.6-18.7 2.6-25.2 5-6.1 19.1-7.1 26.1-10.2-4.1.6-22.4 5.1-24.4.3C46 111 61.8 101 66.8 99.5c17.1-4.7 27 8.6 49.8-6.2-20 3.7-28.7 2.7-43.7 1.4 7.5-3.3 11.7-6.8 15.6-12.2 3.5-4.7 10.2-15.2 13.4-20.1 6-9.1 9.5-17.2 16.5-27.5-5.8 3.2-12.6 16.6-16.1 22.2-4.7 7.2-8.2 12.7-13.2 19.7-2.7 3.8-18 20.9-24.4 17.4-4.4-2.5-1.7-22.5-2.8-27.3-.2-.5 0-7.2-.4-1.9-1.8 3.8-.9 14.5-1.8 21.7-.3 3.3 1.9 8.6.6 11.3-1.7 2.6-7.8 5.7-10.3 7.4-4.8-5.2-6.3-14.5-9.2-21 .5 14.3 3.6 15.8 4.3 23.3.8 6.4-3.7 10.6-3.9 17.3-.7 8.6-1.3 21.5-2.3 30-.9 8.1-2.8 22.9-3.8 30.6"/><path id="Path_521" class="st4" d="M38.5 153c-4-1.5-8.8-2.1-9.1-6.9-.1-6 4.9-5.8-.6-11.3-2.3-2.4-7.6-3.6-7.2-8.1.4-4.5 7-4.8 7.7-9.1s-5.6-6.1-7.3-9.8c-2.9-7.3 4.5-5.9 5.6-11 .9-4.7-6.2-7.6-6.1-12.3-.3-7.4 7.2-2.6 9.1-7.6 1.4-4.8-6-8 1.8-11.1 4.3-1.8 9.5 2.4 12.2-2.3 1.6-3.5-2.4-9.2 2-12.3 3.9-2.8 8.1 2.6 11.9 1 5.3-2.2 1.4-8.3 3.9-11.8 3.7-5.1 7.9-.5 12.4-.9 6.2-.5 3.4-3.5 6.5-8.4 4-6.6 6.4-.8 11.5-1.8 4.1-.6 6.1-5.6 11-7.1 8.4-2.4 4.2 2 9.2 4.8 4 2.3 7.9-2.2 12.6-.4 7.6 2.8 1.6 4.6 2.4 9.2.8 3.8 5.6 5.2 7.6 9.1 3.8 7.3-1.2 7.1-4.1 12.1-3 5.4 1.4 7 2.3 12.2 1.5 6.7-2.1 8.8-5.6 13.5-4.4 5.6-.1 5.5-.8 12.4-.2 5.9-3.8 6.3-7.4 9.3-4.9 4.1-1.8 4.7-3.9 10.1-2.3 5.7-7 3.9-11.6 5.6-6.7 2.4-3.3 5.2-7 9.4-4.2 4.4-9.5.2-13.9 2.4-4.1 1.5-3.7 5.9-6.5 9.3-3.7 4.2-6 2.7-10.3 3.7-5.5.8-3.6 1.3-7.1 5.1s-9.9 5.5-14.7 3.2"/><path id="Path_522" class="st4" d="M21 83.3c-6.6-4-19-21.4-6.8-25.4 5.3-2.2 6.9 2.4 8.3-4.1 1.3-4.5-2.6-8.9 4.4-11.1 5-1.5 7.3 3.5 10.8-2.1 2.3-4-.7-8.4 4.7-11.8s7.8 1.6 12.8.9c4.5-.4 5.7-5.8 8.4-8.8 2.5-3.5 5.2-6.5 9.7-6.9 5.3-.5 7.3 2.6 12.9.6 3.6-1.3 6.6-5 10.7-6.4 6.5-2 6.9.7 11.9 3.5 5.7 3.2 7.7-1.9 12.9-1.1 5 1.1 3.7 6.5 6.9 9.7 2.6 2.5 6.6 1.4 6 6.2-.1 2.1-4 5.8-6.1 6.5"/><path id="Path_523" class="st4" d="M129 36.6c3.6-1.4 7.5-1.5 11.2-.2 9.9 3.4 3.1 7 4.6 14.5 1 5.1 6.1 5.9 3 12.5-1.5 3.1-7.1 6-7.7 9.1-.6 4 4.8 7 5.7 11.2 1.1 4.8-1.6 7.8-4.1 11.3-4.5 6-1.8 3.8-.8 10.7.3 4.8-3.1 7.5-6.5 10.1s-6.8 3.6-9 7.2c-1.8 3-1.3 6.2-3.4 9-6.2 7.7-15.1 2.2-22.2 7.3-5.1 3.5-4.4 4.7-11.1 4.5-3.6-.4-7.7.2-11-1l-1-.5"/><path id="Path_524" class="st4" d="M45.1 163.3c6.7-9.6 22.9-7 32.9-6.5 8.8.3 19.8-.4 27.6-5.2 4.4-3 5.9-7 11.2-8.3 5-1.5 9.6-.5 13.5-4.2 4.7-4.6 1-8.5 4-13 2.7-3.8 8.2-4.6 11-8.8 4.3-7.3 2.6-14.5-5-18.1"/><path id="Path_525" class="st4" d="M37.9 159.5c-8.1-2.6-21.2-16.4-24.3-25.1-6.8-19 7.8-39.8-4.6-56.7C4.4 71.2-6.1 61.1-.3 52.4c3.2-4.9 9-3.8 12.8-7.1 4.1-3.2 2.3-7.4 3.2-12.1 3.2-13.8 12.9-8.4 22.8-11.3C47.9 19 43.7 5.5 56.9 6.3c3.6.4 7.1 3 10.7 1.7 4.4-1.3 5-6.1 10.2-6.2 6.4 0 10.8 6.8 11.4 11.8"/><path id="Path_526" class="st4" d="M65.7 94.3c5.3-5.2 8.5-12.5 10-19.9 2.1-9.8-.8-20 1.6-29.6"/><path id="Path_527" class="st4" d="M76.1 73.1c2.5-5.5 5.7-10.7 9.6-15.3 4.1-5.1 10.6-10.3 12-17"/><path id="Path_528" class="st4" d="M83.3 60.9c4.2-1.1 10.8-1.1 13.8-5.1"/><path id="Path_529" class="st4" d="M75.1 76.3c-2.8-5.6-7.1-10.2-8.9-16.5"/><path id="Path_530" class="st4" d="M74.3 94.2c7.9-.5 18.5-4.9 25.5-8.3 5.9-2.9 14.6-9.3 17.2-15.4"/><path id="Path_531" class="st4" d="M97.6 86.4c4.3-8.5 6.9-15.7 14.6-22.3"/><path id="Path_532" class="st4" d="M107.9 82c2.8 2.5 8.4 3.2 11.9 1.9"/><path id="Path_533" class="st4" d="M123.9 48.4c-5.1 4.1-11.4 8.5-18.2 7.3"/><path id="Path_534" class="st4" d="M49.3 115.8c6.6-3.7 14.2-4.9 22.1-4.6 9.3.7 17.9 5.9 27 1.7"/><path id="Path_535" class="st4" d="M68.9 110.3c10.4-5.3 19.7-6.3 31.7-3.4"/><path id="Path_536" class="st4" d="M69.2 111c6.7 6.3 16.7 4.8 21.1 14.3"/><path id="Path_537" class="st4" d="M81.3 117.6c-2.6 3.6-1.3 8.2-1.5 12.1"/><path id="Path_538" class="st4" d="M44.6 145.9c4.5-9.5 15.1-10.2 23.6-14.9"/><path id="Path_539" class="st4" d="M52.8 137.6c.8-3.6 2.5-6.5 4.3-10.2"/><path id="Path_540" class="st4" d="M41.1 124.7c-3.7-6.6-7-13.5-9.8-20.6"/><path id="Path_541" class="st4" d="M40.7 124.2c-3.8 1.3-8.7 3.3-12.7 2.2"/><path id="Path_542" class="st4" d="M50.6 104.7c-.2-4.4.4-9.2-.4-13.5-1.2-6.5-7.5-11.2-8.4-17.6"/><path id="Path_543" class="st4" d="M49.3 88.2c3-5.7 3-13.6 2.9-19.9"/><path id="Path_544" class="st4" d="M43.5 64.5c-4.2-4.8-9.8-9.2-12.8-14.9"/><path id="Path_545" class="st4" d="M37.8 57.5c.4-4.4 1.4-8.4 2.1-12.9"/><path id="Path_546" class="st4" d="M59.7 51.4c-2.8-3.6-4.8-11.4-4-16.1"/><path id="Path_547" class="st4" d="M77.1 39.2c-1-5.6-4.8-9.7-8.9-13.6"/><path id="Path_548" class="st4" d="M74.8 32.7c.9-4 2.3-8 4.1-11.7"/><path id="Path_549" class="st4" d="M104.3 21.5c-1.4-2.4-2.5-5.5-4.2-7.9"/><path id="Path_550" class="st4" d="M113.4 26.7c1.7-2.3 2.5-5.3 3.6-8.2"/><path id="Path_551" class="st4" d="M30 77.4c-4.8-.6-9.2-6.4-10.5-10.7"/><path id="Path_552" class="st4" d="M24.7 29.4c5.7 3 7.3 9.1 9.8 14"/><path id="Path_553" class="st4" d="M33.9 28.4c.2 2.9-.5 5.7-1.9 8.2"/><path id="Path_554" class="st4" d="M12.9 49.4c3.4 1.3 6.8 4.9 8.4 8"/><path id="Path_555" class="st4" d="M54.5 12.1c2.5 6 .1 11.7 1.5 17.8"/><path id="Path_556" class="st4" d="M78.7 5.9c.6 2.9.8 6.1 1.2 8.8"/><path id="Path_557" class="st4" d="M142.3 55.7c-2.9 2.6-6.9 5-11 4.1"/><path id="Path_558" class="st4" d="M140.1 40.5c-1.8.6-3.4 1.6-4.8 2.9"/><path id="Path_559" class="st4" d="M137.2 84.8c-3.2 1.3-6.7 2.2-9.8 3.9"/><path id="Path_560" class="st4" d="M132.4 104.1c-3.6 2.3-5.1 4.7-8.1 7.5-2.8 2.9-4.3 1.4-7.5 2.1"/><path id="Path_561" class="st4" d="M79.8 137.6c5.6-1 12-3.1 18.2-4.2 7.4-1.3 16.7-1.7 21.7-8.1"/><path id="Path_562" class="st4" d="M107.8 131.3c.1-2.8 1-5.5 2.4-8"/><path id="Path_563" class="st4" d="M56.9 152.3c7.3.1 13-4.6 20.5-3.1 8.8 1.9 16.1 1.4 24-2.8"/><path id="Path_564" class="st4" d="M31 140.6c-8.5.5-15.8-9.8-15.6-17.3.1-5.6 5.2-7.5 3.9-12.9-1.6-6.2-3.2-8.9 1-14.6"/></g><g id="Group_554" transform="rotate(180 496.571 285.866)" class="st3"><path id="Path_670-2" class="st5" d="M16 14.9c-8.3 4.6-17.5 13-11.6 22.8C9.2 46 26.4 54 36.3 53.3c13.3-1.2 8.7-22.1 6.3-30.4C39.1 10.2 29.5 9 19.1 13.5c-1 .4-2.1.8-3.1 1.2"/><path id="Path_671-2" class="st5" d="M16 14.7C7.1 18.5 6.3 6.2 2.5 1.9c5 3.7 12.3 6 13.2 12.8"/><path id="Path_672-2" class="st5" d="M15.9 13.9C14.5 9.5 14.4 4.4 17.2.8c2.3 3.5 2.2 10.8-.9 13.9"/><path id="Path_673-2" class="st5" d="M16 14.9c-5.2 4.7-13.1 4.3-17.8-.8-.2-.3-.5-.5-.7-.8 2.8-.9 6.9-3 9.4-2"/><path id="Path_674-2" class="st5" d="M6.7 28.8c.5.8 1.1 1.4 1.9 1.9"/><path id="Path_675-2" class="st5" d="M15.8 22c.9.8 1.6 1.7 2.2 2.7"/><path id="Path_676-2" class="st5" d="M28.2 15.8c.9.5 1.6 1.2 1.9 2.2"/><path id="Path_677-2" class="st5" d="M15.9 30.8c.6.8 1.3 1.4 2.1 1.9"/><path id="Path_678-2" class="st5" d="M25.2 25.3c.7.6 1.3 1.2 1.9 1.9"/><path id="Path_679-2" class="st5" d="M16.2 39.7c1.2.9 2.4 2.1 3.6 3"/><path id="Path_680-2" class="st5" d="M25.5 34.2c.6.5 1.5.9 2.1 1.4"/><path id="Path_681-2" class="st5" d="M35.1 25.4c.7 1 1.3 1.7 2 3"/><path id="Path_682-2" class="st5" d="M27.5 41.5c.9.7 1.5 1.4 2.4 2.1"/><path id="Path_683-2" class="st5" d="M34.9 34.1c.6.7 1.3 1.5 2.2 2.4"/><path id="Path_684-2" class="st5" d="M36.5 44.9l1.9 2.2"/><path id="Path_685-2" class="st5" d="M31.1 48.5c.8.5 1.5 1.1 2.1 1.9"/><path id="Path_686-2" class="st5" d="M40.7 37.4c.6.5 1 1 1.3 1.7"/><path id="Path_687-2" class="st5" d="M35.4 16.8c.6.9 1.4 1.7 2.2 2.4"/><path id="Path_688-2" class="st5" d="M8.7 37.4c.4.6 1 1.2 1.6 1.7"/><path id="Path_689-2" class="st5" d="M14.9 14.5c-1.2-1.2-2.8-2.6-4-4.1"/></g><g id="Group_555" transform="rotate(-144 574.62 176.898)" class="st3"><path id="Path_644" class="st6" d="M9.5 2.1c-4.3 2.2-7.8 5.7-10 10-2.6 5-.6 10.6 5.9 7.9 4.4-1.8 12.3-14.7 4.7-17.6"/><path id="Path_645" class="st6" d="M10.4 2.7c-.9 3.2-2.9 6.5-4.7 9.4"/><path id="Path_646" class="st6" d="M20.1 7.1c.6 4.4 3.8 27.3 11.2 15.6 3.8-6.2-3.5-17.3-10.6-15.9"/><path id="Path_647" class="st6" d="M21.3 7.1c1.6 2.7 3.1 5.6 4.4 8.5"/><path id="Path_648" class="st6" d="M13.1 22.1c-2.1 2.6-4.1 5.6-5 8.8-1.2 4.4.6 12.9 5.9 7.9 4.1-4.1 2.4-12.9-.6-16.5"/><path id="Path_649" class="st6" d="M13.1 23c0 2.6-.3 5.3-.3 8.2"/></g></g></g></g></svg>